<mxfile host="Electron" modified="2025-06-21T18:02:00.117Z" agent="Mozilla/5.0 (Windows NT 10.0; Win64; x64) AppleWebKit/537.36 (KHTML, like Gecko) draw.io/22.1.16 Chrome/120.0.6099.109 Electron/28.1.0 Safari/537.36" etag="Vf2MHkSLlXfOb5X0jys1" version="22.1.16" type="device">
  <diagram name="Page-1" id="dHK2Nh_Hmx2Eqn7rzKwv">
    <mxGraphModel dx="1434" dy="844" grid="1" gridSize="10" guides="1" tooltips="1" connect="1" arrows="1" fold="1" page="1" pageScale="1" pageWidth="850" pageHeight="1100" math="0" shadow="0">
      <root>
        <mxCell id="0" />
        <mxCell id="1" parent="0" />
        <mxCell id="m7_eIxdjqKYU8T1MsWDA-1" value="" style="verticalLabelPosition=bottom;shadow=0;dashed=0;align=center;html=1;verticalAlign=top;shape=mxgraph.electrical.transistors.nmos;pointerEvents=1;" parent="1" vertex="1">
          <mxGeometry x="90" y="740" width="60" height="100" as="geometry" />
        </mxCell>
        <mxCell id="m7_eIxdjqKYU8T1MsWDA-19" style="edgeStyle=orthogonalEdgeStyle;rounded=0;orthogonalLoop=1;jettySize=auto;html=1;exitX=1;exitY=1;exitDx=0;exitDy=0;exitPerimeter=0;" parent="1" source="m7_eIxdjqKYU8T1MsWDA-2" edge="1">
          <mxGeometry relative="1" as="geometry">
            <mxPoint x="150" y="460" as="targetPoint" />
          </mxGeometry>
        </mxCell>
        <mxCell id="m7_eIxdjqKYU8T1MsWDA-2" value="" style="verticalLabelPosition=bottom;shadow=0;dashed=0;align=center;html=1;verticalAlign=top;shape=mxgraph.electrical.transistors.pmos;pointerEvents=1;" parent="1" vertex="1">
          <mxGeometry x="90" y="250" width="60" height="100" as="geometry" />
        </mxCell>
        <mxCell id="m7_eIxdjqKYU8T1MsWDA-4" value="VDD" style="rounded=0;whiteSpace=wrap;html=1;" parent="1" vertex="1">
          <mxGeometry x="30" y="140" width="740" height="60" as="geometry" />
        </mxCell>
        <mxCell id="m7_eIxdjqKYU8T1MsWDA-9" value="GND" style="rounded=0;whiteSpace=wrap;html=1;" parent="1" vertex="1">
          <mxGeometry x="30" y="950" width="770" height="60" as="geometry" />
        </mxCell>
        <mxCell id="m7_eIxdjqKYU8T1MsWDA-10" style="edgeStyle=orthogonalEdgeStyle;rounded=0;orthogonalLoop=1;jettySize=auto;html=1;exitX=1;exitY=1;exitDx=0;exitDy=0;exitPerimeter=0;entryX=0.155;entryY=0.017;entryDx=0;entryDy=0;entryPerimeter=0;" parent="1" source="m7_eIxdjqKYU8T1MsWDA-1" target="m7_eIxdjqKYU8T1MsWDA-9" edge="1">
          <mxGeometry relative="1" as="geometry" />
        </mxCell>
        <mxCell id="m7_eIxdjqKYU8T1MsWDA-12" style="edgeStyle=orthogonalEdgeStyle;rounded=0;orthogonalLoop=1;jettySize=auto;html=1;exitX=0.25;exitY=1;exitDx=0;exitDy=0;entryX=1;entryY=0;entryDx=0;entryDy=0;entryPerimeter=0;" parent="1" source="m7_eIxdjqKYU8T1MsWDA-4" target="m7_eIxdjqKYU8T1MsWDA-2" edge="1">
          <mxGeometry relative="1" as="geometry" />
        </mxCell>
        <mxCell id="m7_eIxdjqKYU8T1MsWDA-13" value="" style="verticalLabelPosition=bottom;shadow=0;dashed=0;align=center;html=1;verticalAlign=top;shape=mxgraph.electrical.transistors.nmos;pointerEvents=1;" parent="1" vertex="1">
          <mxGeometry x="90" y="600" width="60" height="100" as="geometry" />
        </mxCell>
        <mxCell id="m7_eIxdjqKYU8T1MsWDA-14" value="" style="verticalLabelPosition=bottom;shadow=0;dashed=0;align=center;html=1;verticalAlign=top;shape=mxgraph.electrical.transistors.nmos;pointerEvents=1;" parent="1" vertex="1">
          <mxGeometry x="90" y="460" width="60" height="100" as="geometry" />
        </mxCell>
        <mxCell id="m7_eIxdjqKYU8T1MsWDA-15" style="edgeStyle=orthogonalEdgeStyle;rounded=0;orthogonalLoop=1;jettySize=auto;html=1;exitX=1;exitY=1;exitDx=0;exitDy=0;exitPerimeter=0;entryX=1;entryY=0;entryDx=0;entryDy=0;entryPerimeter=0;" parent="1" source="m7_eIxdjqKYU8T1MsWDA-13" target="m7_eIxdjqKYU8T1MsWDA-1" edge="1">
          <mxGeometry relative="1" as="geometry" />
        </mxCell>
        <mxCell id="m7_eIxdjqKYU8T1MsWDA-16" style="edgeStyle=orthogonalEdgeStyle;rounded=0;orthogonalLoop=1;jettySize=auto;html=1;exitX=1;exitY=1;exitDx=0;exitDy=0;exitPerimeter=0;entryX=1;entryY=0;entryDx=0;entryDy=0;entryPerimeter=0;" parent="1" source="m7_eIxdjqKYU8T1MsWDA-14" target="m7_eIxdjqKYU8T1MsWDA-13" edge="1">
          <mxGeometry relative="1" as="geometry" />
        </mxCell>
        <mxCell id="m7_eIxdjqKYU8T1MsWDA-20" value="" style="endArrow=none;html=1;rounded=0;entryX=0;entryY=0.5;entryDx=0;entryDy=0;entryPerimeter=0;" parent="1" target="m7_eIxdjqKYU8T1MsWDA-28" edge="1">
          <mxGeometry width="50" height="50" relative="1" as="geometry">
            <mxPoint x="150" y="380" as="sourcePoint" />
            <mxPoint x="210" y="380" as="targetPoint" />
            <Array as="points">
              <mxPoint x="320" y="380" />
            </Array>
          </mxGeometry>
        </mxCell>
        <mxCell id="m7_eIxdjqKYU8T1MsWDA-21" value="B" style="text;html=1;align=center;verticalAlign=middle;resizable=0;points=[];autosize=1;strokeColor=none;fillColor=none;" parent="1" vertex="1">
          <mxGeometry x="60" y="495" width="30" height="30" as="geometry" />
        </mxCell>
        <mxCell id="m7_eIxdjqKYU8T1MsWDA-22" value="C" style="text;html=1;align=center;verticalAlign=middle;resizable=0;points=[];autosize=1;strokeColor=none;fillColor=none;" parent="1" vertex="1">
          <mxGeometry x="60" y="635" width="30" height="30" as="geometry" />
        </mxCell>
        <mxCell id="m7_eIxdjqKYU8T1MsWDA-23" value="" style="verticalLabelPosition=bottom;shadow=0;dashed=0;align=center;html=1;verticalAlign=top;shape=mxgraph.electrical.transistors.pmos;pointerEvents=1;" parent="1" vertex="1">
          <mxGeometry x="320" y="252.86" width="60" height="100" as="geometry" />
        </mxCell>
        <mxCell id="m7_eIxdjqKYU8T1MsWDA-25" style="edgeStyle=orthogonalEdgeStyle;rounded=0;orthogonalLoop=1;jettySize=auto;html=1;exitX=0.25;exitY=1;exitDx=0;exitDy=0;entryX=1;entryY=0;entryDx=0;entryDy=0;entryPerimeter=0;" parent="1" source="m7_eIxdjqKYU8T1MsWDA-4" target="m7_eIxdjqKYU8T1MsWDA-23" edge="1">
          <mxGeometry relative="1" as="geometry" />
        </mxCell>
        <mxCell id="m7_eIxdjqKYU8T1MsWDA-26" value="" style="verticalLabelPosition=bottom;shadow=0;dashed=0;align=center;html=1;verticalAlign=top;shape=mxgraph.electrical.transistors.nmos;pointerEvents=1;" parent="1" vertex="1">
          <mxGeometry x="320" y="740" width="60" height="100" as="geometry" />
        </mxCell>
        <mxCell id="m7_eIxdjqKYU8T1MsWDA-27" style="edgeStyle=orthogonalEdgeStyle;rounded=0;orthogonalLoop=1;jettySize=auto;html=1;exitX=1;exitY=1;exitDx=0;exitDy=0;exitPerimeter=0;entryX=0.442;entryY=0.033;entryDx=0;entryDy=0;entryPerimeter=0;" parent="1" source="m7_eIxdjqKYU8T1MsWDA-26" target="m7_eIxdjqKYU8T1MsWDA-9" edge="1">
          <mxGeometry relative="1" as="geometry" />
        </mxCell>
        <mxCell id="m7_eIxdjqKYU8T1MsWDA-50" style="edgeStyle=orthogonalEdgeStyle;rounded=0;orthogonalLoop=1;jettySize=auto;html=1;exitX=1;exitY=1;exitDx=0;exitDy=0;exitPerimeter=0;" parent="1" source="m7_eIxdjqKYU8T1MsWDA-28" edge="1">
          <mxGeometry relative="1" as="geometry">
            <mxPoint x="380" y="610" as="targetPoint" />
          </mxGeometry>
        </mxCell>
        <mxCell id="m7_eIxdjqKYU8T1MsWDA-28" value="" style="verticalLabelPosition=bottom;shadow=0;dashed=0;align=center;html=1;verticalAlign=top;shape=mxgraph.electrical.transistors.pmos;pointerEvents=1;" parent="1" vertex="1">
          <mxGeometry x="320" y="380" width="60" height="100" as="geometry" />
        </mxCell>
        <mxCell id="m7_eIxdjqKYU8T1MsWDA-29" value="" style="verticalLabelPosition=bottom;shadow=0;dashed=0;align=center;html=1;verticalAlign=top;shape=mxgraph.electrical.transistors.pmos;pointerEvents=1;direction=east;" parent="1" vertex="1">
          <mxGeometry x="425" y="380" width="60" height="100" as="geometry" />
        </mxCell>
        <mxCell id="m7_eIxdjqKYU8T1MsWDA-30" value="D" style="text;html=1;align=center;verticalAlign=middle;resizable=0;points=[];autosize=1;strokeColor=none;fillColor=none;rotation=0;" parent="1" vertex="1">
          <mxGeometry x="390" y="415" width="30" height="30" as="geometry" />
        </mxCell>
        <mxCell id="m7_eIxdjqKYU8T1MsWDA-31" style="edgeStyle=orthogonalEdgeStyle;rounded=0;orthogonalLoop=1;jettySize=auto;html=1;exitX=1;exitY=1;exitDx=0;exitDy=0;exitPerimeter=0;entryX=1;entryY=0;entryDx=0;entryDy=0;entryPerimeter=0;" parent="1" source="m7_eIxdjqKYU8T1MsWDA-23" target="m7_eIxdjqKYU8T1MsWDA-28" edge="1">
          <mxGeometry relative="1" as="geometry" />
        </mxCell>
        <mxCell id="m7_eIxdjqKYU8T1MsWDA-34" value="" style="endArrow=none;html=1;rounded=0;entryX=0;entryY=0.5;entryDx=0;entryDy=0;entryPerimeter=0;" parent="1" target="m7_eIxdjqKYU8T1MsWDA-45" edge="1">
          <mxGeometry width="50" height="50" relative="1" as="geometry">
            <mxPoint x="380" y="660" as="sourcePoint" />
            <mxPoint x="450" y="650" as="targetPoint" />
          </mxGeometry>
        </mxCell>
        <mxCell id="m7_eIxdjqKYU8T1MsWDA-37" value="~clk" style="text;html=1;align=center;verticalAlign=middle;resizable=0;points=[];autosize=1;strokeColor=none;fillColor=none;" parent="1" vertex="1">
          <mxGeometry x="275" y="775" width="50" height="30" as="geometry" />
        </mxCell>
        <mxCell id="m7_eIxdjqKYU8T1MsWDA-39" value="~clk" style="text;html=1;align=center;verticalAlign=middle;resizable=0;points=[];autosize=1;strokeColor=none;fillColor=none;" parent="1" vertex="1">
          <mxGeometry x="275" y="287.86" width="50" height="30" as="geometry" />
        </mxCell>
        <mxCell id="m7_eIxdjqKYU8T1MsWDA-40" value="clk" style="text;html=1;align=center;verticalAlign=middle;resizable=0;points=[];autosize=1;strokeColor=none;fillColor=none;" parent="1" vertex="1">
          <mxGeometry x="50" y="775" width="40" height="30" as="geometry" />
        </mxCell>
        <mxCell id="m7_eIxdjqKYU8T1MsWDA-41" value="clk" style="text;html=1;align=center;verticalAlign=middle;resizable=0;points=[];autosize=1;strokeColor=none;fillColor=none;" parent="1" vertex="1">
          <mxGeometry x="55" y="287.86" width="40" height="30" as="geometry" />
        </mxCell>
        <mxCell id="m7_eIxdjqKYU8T1MsWDA-42" value="" style="verticalLabelPosition=bottom;shadow=0;dashed=0;align=center;html=1;verticalAlign=top;shape=mxgraph.electrical.transistors.nmos;pointerEvents=1;" parent="1" vertex="1">
          <mxGeometry x="580" y="740" width="60" height="100" as="geometry" />
        </mxCell>
        <mxCell id="m7_eIxdjqKYU8T1MsWDA-43" value="" style="verticalLabelPosition=bottom;shadow=0;dashed=0;align=center;html=1;verticalAlign=top;shape=mxgraph.electrical.transistors.pmos;pointerEvents=1;" parent="1" vertex="1">
          <mxGeometry x="580" y="250" width="60" height="100" as="geometry" />
        </mxCell>
        <mxCell id="m7_eIxdjqKYU8T1MsWDA-44" style="edgeStyle=orthogonalEdgeStyle;rounded=0;orthogonalLoop=1;jettySize=auto;html=1;exitX=0.75;exitY=1;exitDx=0;exitDy=0;entryX=1;entryY=0;entryDx=0;entryDy=0;entryPerimeter=0;" parent="1" source="m7_eIxdjqKYU8T1MsWDA-4" target="m7_eIxdjqKYU8T1MsWDA-43" edge="1">
          <mxGeometry relative="1" as="geometry" />
        </mxCell>
        <mxCell id="m7_eIxdjqKYU8T1MsWDA-45" value="" style="verticalLabelPosition=bottom;shadow=0;dashed=0;align=center;html=1;verticalAlign=top;shape=mxgraph.electrical.transistors.nmos;pointerEvents=1;" parent="1" vertex="1">
          <mxGeometry x="580" y="610" width="60" height="100" as="geometry" />
        </mxCell>
        <mxCell id="m7_eIxdjqKYU8T1MsWDA-46" value="" style="verticalLabelPosition=bottom;shadow=0;dashed=0;align=center;html=1;verticalAlign=top;shape=mxgraph.electrical.transistors.nmos;pointerEvents=1;" parent="1" vertex="1">
          <mxGeometry x="580" y="495" width="60" height="100" as="geometry" />
        </mxCell>
        <mxCell id="m7_eIxdjqKYU8T1MsWDA-48" style="edgeStyle=orthogonalEdgeStyle;rounded=0;orthogonalLoop=1;jettySize=auto;html=1;exitX=1;exitY=1;exitDx=0;exitDy=0;exitPerimeter=0;entryX=1;entryY=0;entryDx=0;entryDy=0;entryPerimeter=0;" parent="1" source="m7_eIxdjqKYU8T1MsWDA-23" target="m7_eIxdjqKYU8T1MsWDA-29" edge="1">
          <mxGeometry relative="1" as="geometry" />
        </mxCell>
        <mxCell id="m7_eIxdjqKYU8T1MsWDA-49" style="edgeStyle=orthogonalEdgeStyle;rounded=0;orthogonalLoop=1;jettySize=auto;html=1;exitX=1;exitY=1;exitDx=0;exitDy=0;exitPerimeter=0;entryX=1;entryY=0;entryDx=0;entryDy=0;entryPerimeter=0;" parent="1" source="m7_eIxdjqKYU8T1MsWDA-29" target="m7_eIxdjqKYU8T1MsWDA-26" edge="1">
          <mxGeometry relative="1" as="geometry" />
        </mxCell>
        <mxCell id="m7_eIxdjqKYU8T1MsWDA-51" value="clk" style="text;html=1;align=center;verticalAlign=middle;resizable=0;points=[];autosize=1;strokeColor=none;fillColor=none;" parent="1" vertex="1">
          <mxGeometry x="540" y="775" width="40" height="30" as="geometry" />
        </mxCell>
        <mxCell id="m7_eIxdjqKYU8T1MsWDA-52" value="clk" style="text;html=1;align=center;verticalAlign=middle;resizable=0;points=[];autosize=1;strokeColor=none;fillColor=none;" parent="1" vertex="1">
          <mxGeometry x="540" y="280" width="40" height="30" as="geometry" />
        </mxCell>
        <mxCell id="m7_eIxdjqKYU8T1MsWDA-53" style="edgeStyle=orthogonalEdgeStyle;rounded=0;orthogonalLoop=1;jettySize=auto;html=1;exitX=1;exitY=1;exitDx=0;exitDy=0;exitPerimeter=0;entryX=0.791;entryY=0.05;entryDx=0;entryDy=0;entryPerimeter=0;" parent="1" source="m7_eIxdjqKYU8T1MsWDA-42" target="m7_eIxdjqKYU8T1MsWDA-9" edge="1">
          <mxGeometry relative="1" as="geometry" />
        </mxCell>
        <mxCell id="m7_eIxdjqKYU8T1MsWDA-54" value="" style="verticalLabelPosition=bottom;shadow=0;dashed=0;align=center;html=1;verticalAlign=top;shape=mxgraph.electrical.transistors.nmos;pointerEvents=1;" parent="1" vertex="1">
          <mxGeometry x="690" y="495" width="60" height="100" as="geometry" />
        </mxCell>
        <mxCell id="m7_eIxdjqKYU8T1MsWDA-55" style="edgeStyle=orthogonalEdgeStyle;rounded=0;orthogonalLoop=1;jettySize=auto;html=1;exitX=1;exitY=1;exitDx=0;exitDy=0;exitPerimeter=0;entryX=1;entryY=0;entryDx=0;entryDy=0;entryPerimeter=0;" parent="1" source="m7_eIxdjqKYU8T1MsWDA-45" target="m7_eIxdjqKYU8T1MsWDA-42" edge="1">
          <mxGeometry relative="1" as="geometry" />
        </mxCell>
        <mxCell id="m7_eIxdjqKYU8T1MsWDA-56" style="edgeStyle=orthogonalEdgeStyle;rounded=0;orthogonalLoop=1;jettySize=auto;html=1;exitX=1;exitY=1;exitDx=0;exitDy=0;exitPerimeter=0;entryX=1;entryY=0;entryDx=0;entryDy=0;entryPerimeter=0;" parent="1" source="m7_eIxdjqKYU8T1MsWDA-46" target="m7_eIxdjqKYU8T1MsWDA-45" edge="1">
          <mxGeometry relative="1" as="geometry" />
        </mxCell>
        <mxCell id="m7_eIxdjqKYU8T1MsWDA-57" value="A" style="text;html=1;align=center;verticalAlign=middle;resizable=0;points=[];autosize=1;strokeColor=none;fillColor=none;" parent="1" vertex="1">
          <mxGeometry x="545" y="528" width="30" height="30" as="geometry" />
        </mxCell>
        <mxCell id="m7_eIxdjqKYU8T1MsWDA-58" value="C" style="text;html=1;align=center;verticalAlign=middle;resizable=0;points=[];autosize=1;strokeColor=none;fillColor=none;" parent="1" vertex="1">
          <mxGeometry x="660" y="528" width="30" height="30" as="geometry" />
        </mxCell>
        <mxCell id="m7_eIxdjqKYU8T1MsWDA-61" value="" style="endArrow=classic;html=1;rounded=0;" parent="1" edge="1">
          <mxGeometry width="50" height="50" relative="1" as="geometry">
            <mxPoint x="750" y="592.14" as="sourcePoint" />
            <mxPoint x="640" y="710" as="targetPoint" />
            <Array as="points">
              <mxPoint x="750" y="710" />
            </Array>
          </mxGeometry>
        </mxCell>
        <mxCell id="m7_eIxdjqKYU8T1MsWDA-63" style="edgeStyle=orthogonalEdgeStyle;rounded=0;orthogonalLoop=1;jettySize=auto;html=1;exitX=1;exitY=1;exitDx=0;exitDy=0;exitPerimeter=0;entryX=1;entryY=0;entryDx=0;entryDy=0;entryPerimeter=0;" parent="1" source="m7_eIxdjqKYU8T1MsWDA-43" target="m7_eIxdjqKYU8T1MsWDA-46" edge="1">
          <mxGeometry relative="1" as="geometry" />
        </mxCell>
        <mxCell id="m7_eIxdjqKYU8T1MsWDA-65" style="edgeStyle=orthogonalEdgeStyle;rounded=0;orthogonalLoop=1;jettySize=auto;html=1;exitX=1;exitY=1;exitDx=0;exitDy=0;exitPerimeter=0;entryX=1;entryY=0;entryDx=0;entryDy=0;entryPerimeter=0;" parent="1" source="m7_eIxdjqKYU8T1MsWDA-43" target="m7_eIxdjqKYU8T1MsWDA-54" edge="1">
          <mxGeometry relative="1" as="geometry" />
        </mxCell>
        <mxCell id="m7_eIxdjqKYU8T1MsWDA-66" value="Y" style="text;html=1;align=center;verticalAlign=middle;resizable=0;points=[];autosize=1;strokeColor=none;fillColor=none;" parent="1" vertex="1">
          <mxGeometry x="780" y="360" width="30" height="30" as="geometry" />
        </mxCell>
        <mxCell id="kLcCUnmrQ5icdTdmHMr--1" value="" style="endArrow=none;html=1;rounded=0;" parent="1" edge="1">
          <mxGeometry width="50" height="50" relative="1" as="geometry">
            <mxPoint x="640" y="370" as="sourcePoint" />
            <mxPoint x="780" y="370" as="targetPoint" />
          </mxGeometry>
        </mxCell>
      </root>
    </mxGraphModel>
  </diagram>
</mxfile>
